<svg xmlns="http://www.w3.org/2000/svg" viewBox="0 0 512 512">
  <defs>
    <linearGradient id="bookGradient" x1="0%" y1="0%" x2="100%" y2="100%">
      <stop offset="0%" stop-color="#7CC774" />
      <stop offset="100%" stop-color="#4BA151" />
    </linearGradient>
    <linearGradient id="pageGradient" x1="0%" y1="0%" x2="100%" y2="0%">
      <stop offset="0%" stop-color="#F5FBEF" />
      <stop offset="100%" stop-color="#E4F4DA" />
    </linearGradient>
  </defs>
  <rect width="512" height="512" rx="64" fill="#0F1A16" />
  <g transform="translate(72 96)">
    <path d="M0 32c0-17.673 14.327-32 32-32h176c32 0 48 16 80 16h48c17.673 0 32 14.327 32 32v240c0 17.673-14.327 32-32 32H208c-32 0-48-16-80-16H32c-17.673 0-32-14.327-32-32V32z" fill="url(#bookGradient)" />
    <path d="M64 48c-8.837 0-16 7.163-16 16v208c0 8.837 7.163 16 16 16h107c18.874 0 28.311 8 53 8h74c8.837 0 16-7.163 16-16V72c0-8.837-7.163-16-16-16H224c-24.689 0-34.126-8-53-8H64z" fill="url(#pageGradient)" />
    <path d="M96 120h160c8.837 0 16 5.82 16 12.999S264.837 146 256 146H96c-8.837 0-16-5.82-16-12.999S87.163 120 96 120zm0 64h160c8.837 0 16 5.82 16 12.999S264.837 210 256 210H96c-8.837 0-16-5.82-16-12.999S87.163 184 96 184zm0 64h96c8.837 0 16 5.82 16 12.999S200.837 274 192 274H96c-8.837 0-16-5.82-16-12.999S87.163 248 96 248z" fill="#3A5F2F" opacity=".65" />
    <path d="M208 16c0 17.673 14.327 32 32 32h64" stroke="#A6E080" stroke-width="12" stroke-linecap="round" fill="none" opacity=".6" />
  </g>
  <path d="M176 368c32 0 64 16 96 16s64-16 96-16c32 0 48 16 80 16" stroke="#A6E080" stroke-width="18" stroke-linecap="round" opacity=".4" fill="none" />
</svg>

