<?xml version="1.0" encoding="UTF-8"?>
<svg version="1.1" xmlns="http://www.w3.org/2000/svg" width="500" height="500">
<path d="M0 0 C165 0 330 0 500 0 C500 165 500 330 500 500 C335 500 170 500 0 500 C0 335 0 170 0 0 Z " fill="#F8F9F5" transform="translate(0,0)"/>
<path d="M0 0 C165 0 330 0 500 0 C500 165 500 330 500 500 C335 500 170 500 0 500 C0 335 0 170 0 0 Z M211 29 C210.08992187 29.41765625 209.17984375 29.8353125 208.2421875 30.265625 C200.24050286 34.23227209 194.31619767 39.81934305 188 46 C187.29488281 46.65484375 186.58976562 47.3096875 185.86328125 47.984375 C182.79580439 50.88550279 180.77077411 53.37751002 178.9296875 57.1875 C177.39809635 59.67780143 176.70525931 60.80298359 173.85620117 61.59887695 C171.22163447 61.68170842 168.68848683 61.53902731 166.0625 61.3125 C164.16707531 61.23418205 162.27118234 61.16648011 160.375 61.109375 C159.45332031 61.07908203 158.53164062 61.04878906 157.58203125 61.01757812 C140.58433885 60.9018601 125.70007381 70.56949195 113.8125 81.875 C105.90912188 90.09138319 101.80646246 99.40810445 98 110 C97.72929688 110.7425 97.45859375 111.485 97.1796875 112.25 C91.7020286 130.14882907 98.9223364 149.23047166 107 165 C106.33355469 165.81339844 105.66710937 166.62679687 104.98046875 167.46484375 C86.89346931 189.81248375 72.57461875 215.52673944 66.375 243.8125 C66.17132813 244.69486328 65.96765625 245.57722656 65.7578125 246.48632812 C62.61839709 260.50301294 61.59474973 274.12575897 61.625 288.4375 C61.62487915 289.31784912 61.6247583 290.19819824 61.62463379 291.10522461 C61.65196857 305.11207241 62.72838663 318.34393526 66 332 C66.29543632 333.40937131 66.58727872 334.81950222 66.875 336.23046875 C71.83564129 359.38764423 83.08168377 381.04532249 97 400 C97.42087891 400.58458984 97.84175781 401.16917969 98.27539062 401.77148438 C112.94191913 422.02746153 131.66791256 438.14687863 153 451 C153.68191406 451.41282227 154.36382812 451.82564453 155.06640625 452.25097656 C166.26541866 458.95310786 177.59092973 463.9806029 190 468 C190.74169434 468.24089355 191.48338867 468.48178711 192.24755859 468.72998047 C207.61418442 473.64089371 223.19471943 477.06592373 239.3828125 477.23828125 C240.1514563 477.2480751 240.9201001 477.25786896 241.71203613 477.26795959 C266.43389277 477.51812346 288.46895628 474.89296981 312 467 C312.68046387 466.78150391 313.36092773 466.56300781 314.06201172 466.33789062 C332.19282678 460.4819752 348.97807671 450.61774568 364 439 C364.88558594 438.33613281 365.77117187 437.67226563 366.68359375 436.98828125 C372.42147625 432.57521405 377.48346474 427.63315197 382.53125 422.46484375 C384.38749297 420.61153788 386.17984032 418.96615997 388.25 417.375 C391.3367734 414.70915024 393.60400765 411.86650616 396.03515625 408.60546875 C397.39448089 406.80294482 398.802035 405.03616315 400.24609375 403.30078125 C409.80558246 391.59996707 417.32395748 377.99136531 423 364 C423.29543701 363.28505371 423.59087402 362.57010742 423.89526367 361.83349609 C429.22508138 348.82290367 433.35040333 335.81722261 436 322 C436.18546387 321.0711499 436.37092773 320.1422998 436.56201172 319.18530273 C438.35111023 309.16970262 438.40085845 299.20395258 438.375 289.0625 C438.37345917 288.1503775 438.37191833 287.238255 438.37033081 286.29849243 C438.31482653 272.50363765 437.81120894 259.34159264 434 246 C433.52481934 244.33275879 433.52481934 244.33275879 433.04003906 242.63183594 C429.05628434 228.99781037 424.7995607 215.51347725 418 203 C417.64357422 202.34064453 417.28714844 201.68128906 416.91992188 201.00195312 C411.19435172 190.52929435 404.56678883 180.94017793 397.20361328 171.55615234 C396.19199973 170.24823657 395.22859164 168.90323573 394.27734375 167.55078125 C393.64505859 166.78314453 393.64505859 166.78314453 393 166 C392.34 166 391.68 166 391 166 C391.37511719 165.35675781 391.75023437 164.71351563 392.13671875 164.05078125 C401.74371721 147.08729027 405.59317866 130.5122073 402.3515625 111.12109375 C397.29272553 93.50164022 386.46249861 79.67525985 371 70 C355.44452769 61.53476219 339.52856446 59.25042126 322 62 C321.77183594 61.29230469 321.54367187 60.58460937 321.30859375 59.85546875 C318.62634744 54.00256711 313.46734003 49.56606578 309 45 C308.12730469 44.10152344 307.25460937 43.20304687 306.35546875 42.27734375 C290.62308282 27.01669353 268.38261215 19.60755328 246.69116211 19.62695312 C234.19435013 19.94713649 222.21021306 23.60131383 211 29 Z " fill="#186E72" transform="translate(0,0)"/>
<path d="M0 0 C3.31364383 1.27402885 6.429174 2.71025489 9.5625 4.375 C17.39033395 8.30049661 25.21343055 10.85523881 33.88671875 12.11328125 C35.03744873 12.28255127 36.18817871 12.45182129 37.3737793 12.6262207 C38.24043213 12.74956787 39.10708496 12.87291504 40 13 C40.0154612 14.17724136 40.0154612 14.17724136 40.03123474 15.37826538 C40.12910777 22.76522328 40.23160753 30.15209546 40.33933926 37.53891563 C40.39456444 41.33678642 40.44798378 45.1346649 40.49731445 48.93261719 C40.54496401 52.59607367 40.597307 56.25943546 40.65294075 59.92277908 C40.67336163 61.32222773 40.69207517 62.72170235 40.70907402 64.12119675 C40.73312361 66.07744014 40.76374122 68.03359949 40.79467773 69.98974609 C40.81799416 71.66186661 40.81799416 71.66186661 40.84178162 73.36776733 C40.82581145 75.97890829 40.82581145 75.97890829 42 78 C48.0172014 78.6135962 52.58678533 76.42561624 58 74.125 C59.74938115 73.39694873 61.4993671 72.67034872 63.25 71.9453125 C64.01828125 71.62062988 64.7865625 71.29594727 65.578125 70.96142578 C72.496775 68.21488912 79.46104495 66.82059564 86.75 65.4375 C87.87921875 65.21642578 89.0084375 64.99535156 90.171875 64.76757812 C91.285625 64.55423828 92.399375 64.34089844 93.546875 64.12109375 C94.54557617 63.9295874 95.54427734 63.73808105 96.57324219 63.54077148 C104.3169493 62.31874874 111.99522464 61.83781497 119.828125 61.796875 C120.73153625 61.78986069 121.63494751 61.78284637 122.56573486 61.77561951 C125.46054128 61.75823053 128.35514329 61.75176867 131.25 61.75 C132.73197876 61.74898788 132.73197876 61.74898788 134.24389648 61.74795532 C148.35649071 61.7632951 162.15334511 62.001583 176 65 C177.27206299 65.26538574 177.27206299 65.26538574 178.56982422 65.53613281 C188.81647367 67.72657403 198.38742914 70.63049858 207.93359375 74.9609375 C211.1948271 76.06601785 212.76312086 76.02854104 216 75 C218.1240228 68.02426196 218.34184674 61.4506295 218.4140625 54.1875 C218.43342865 52.97803711 218.4527948 51.76857422 218.4727478 50.52246094 C218.53224739 46.68171105 218.57881068 42.84093071 218.625 39 C218.663207 36.3867061 218.7022603 33.77342443 218.7421875 31.16015625 C218.83792458 24.7735465 218.92305793 18.38686235 219 12 C219.94464111 11.87012695 220.88928223 11.74025391 221.86254883 11.60644531 C223.73463013 11.34492676 223.73463013 11.34492676 225.64453125 11.078125 C226.87792236 10.90700195 228.11131348 10.73587891 229.38208008 10.55957031 C238.0851705 9.21349546 245.04187058 6.77583386 252.58984375 2.20703125 C255 1 255 1 259 1 C274.39463208 15.7757524 287.07171054 39.50996895 292 60 C292.41607967 61.51686467 292.8370536 63.03239151 293.26171875 64.546875 C293.71734012 66.19758749 294.17176886 67.84862963 294.625 69.5 C294.83181396 70.24733398 295.03862793 70.99466797 295.25170898 71.76464844 C298.48405081 83.97834868 299.43973453 96.10711565 299.4375 108.6875 C299.43889984 109.44746277 299.44029968 110.20742554 299.44174194 110.99041748 C299.42003961 125.43134167 297.53736695 138.98022717 294 153 C293.81840332 153.78391113 293.63680664 154.56782227 293.44970703 155.37548828 C288.46098869 176.87825408 277.07789662 199.97905276 261.796875 216.0546875 C260.01300912 217.98591621 258.51676418 219.98032807 257 222.125 C254.44301589 225.62439559 251.57198923 228.32862876 248.22265625 231.06640625 C246.2961639 232.74235302 244.5641729 234.47020791 242.79296875 236.3046875 C238.92977325 240.19876797 234.71506105 243.39185948 230.25 246.5625 C229.46157715 247.12461182 228.6731543 247.68672363 227.86083984 248.26586914 C214.62459741 257.58924736 214.62459741 257.58924736 210 259 C200.1220095 254.99060906 192.37251723 244.45231203 184.99072266 236.97021484 C179.86846571 231.78469961 174.74006754 226.69053517 169.19775391 221.94873047 C164.52565968 217.80602262 160.09822422 213.40118553 155.66040039 209.01049805 C154.50092868 207.86778503 153.33609371 206.73049124 152.16625977 205.59838867 C150.46198786 203.94855122 148.77446083 202.28315381 147.08984375 200.61328125 C146.56293442 200.10904129 146.03602509 199.60480133 145.4931488 199.08528137 C144.05444336 197.63793945 144.05444336 197.63793945 142 195 C142.06079102 192.71166992 142.06079102 192.71166992 143 191 C144.32467746 190.3162955 145.65863633 189.65035814 147 189 C147.433125 188.13375 147.433125 188.13375 147.875 187.25 C149.63097456 183.73805088 151.70438592 181.10368564 155 179 C158.8210751 178.27217617 162.50299261 178.4301506 166.375 178.625 C167.39722656 178.65207031 168.41945313 178.67914063 169.47265625 178.70703125 C171.98396496 178.77744177 174.49086959 178.87584866 177 179 C177 178.34 177 177.68 177 177 C177.54527344 176.86464844 178.09054687 176.72929687 178.65234375 176.58984375 C193.15336168 172.45023692 205.35672567 158.31705211 215.015625 147.23046875 C216.80971747 145.21388056 218.66867054 143.35678172 220.625 141.5 C224.63611978 137.52654332 228.51203425 133.09050887 231 128 C230.76230488 124.60294056 230.42810652 123.42810652 228 121 C224.6565575 120.3528132 224.6565575 120.3528132 221 121 C218.74551801 122.89144633 217.13818587 124.50845471 215.3125 126.75 C214.27599731 127.94883257 213.2368626 129.14539378 212.1953125 130.33984375 C211.40688965 131.25612549 211.40688965 131.25612549 210.60253906 132.19091797 C208.0902318 135.02702351 205.39587839 137.66529648 202.6875 140.3125 C197.45354454 145.4733297 192.63220773 150.90328502 187.875 156.5 C186 158 186 158 183.25 158.25 C182.5075 158.1675 181.765 158.085 181 158 C180.0625 155.9375 180.0625 155.9375 180 153 C182.99586089 148.93142763 187.18864755 145.83683214 191 142.5625 C194.3836508 139.64645545 197.26149772 136.51678252 200.140625 133.109375 C202.22183757 130.74833553 204.43294312 128.57061421 206.6875 126.375 C212.74141535 120.54793015 212.74141535 120.54793015 215.4375 112.8125 C215.18968142 110.0302212 215.18968142 110.0302212 213.8125 108.0625 C212.00654183 106.76802284 212.00654183 106.76802284 209.6295166 107.21322632 C206.55729446 108.13246125 205.32222883 109.22453745 203.11523438 111.52587891 C202.39098267 112.26979889 201.66673096 113.01371887 200.92053223 113.78018188 C200.15269409 114.58748749 199.38485596 115.39479309 198.59375 116.2265625 C196.94684876 117.91429105 195.29970602 119.60178396 193.65234375 121.2890625 C191.06666091 123.9619364 188.48607199 126.63950845 185.91064453 129.32226562 C183.42191057 131.90724896 180.91528936 134.47380691 178.40625 137.0390625 C177.63841187 137.85041656 176.87057373 138.66177063 176.07946777 139.49771118 C175.35521606 140.23532684 174.63096436 140.9729425 173.88476562 141.73291016 C173.25364868 142.38941559 172.62253174 143.04592102 171.97229004 143.72232056 C170 145 170 145 167.31970215 144.76669312 C165 144 165 144 164 143 C163.58413678 139.38447755 163.57124906 137.60362008 165.70898438 134.59399414 C166.49595703 133.83207764 167.28292969 133.07016113 168.09375 132.28515625 C168.96 131.43373047 169.82625 130.58230469 170.71875 129.70507812 C171.6365625 128.83302734 172.554375 127.96097656 173.5 127.0625 C174.386875 126.19431641 175.27375 125.32613281 176.1875 124.43164062 C180.14743609 120.57943809 184.15906022 116.8212671 188.34765625 113.21875 C191.4969085 110.49814376 194.27678471 107.64999807 196.9375 104.4375 C197.68902344 103.54933594 198.44054687 102.66117187 199.21484375 101.74609375 C201.20255469 98.68841149 201.84558155 96.63132427 202 93 C201.34 92.01 200.68 91.02 200 90 C193.52037496 89.85913859 190.62551994 92.64762923 186.0703125 97.0078125 C185.5949707 97.47348633 185.11962891 97.93916016 184.62988281 98.41894531 C182.7528757 100.23972093 180.84373044 102.02289073 178.9296875 103.8046875 C156.93861754 121.5900989 156.93861754 121.5900989 144.82714844 145.45068359 C144.92868597 148.09920479 145.11212002 150.73222135 145.3125 153.375 C145.5811498 160.13758421 145.68306361 164.69743068 140.875 169.9375 C139.28138908 171.32846966 137.65808801 172.68655548 136 174 C134.88263099 175.21717757 133.77632752 176.44472514 132.6875 177.6875 C130 180 130 180 128.140625 179.9375 C125.13157539 178.61966806 123.34416964 176.66448304 121.0625 174.3125 C120.22847656 173.46300781 119.39445313 172.61351562 118.53515625 171.73828125 C117.28025391 170.38283203 117.28025391 170.38283203 116 169 C114.60587891 167.67742187 114.60587891 167.67742187 113.18359375 166.328125 C110.08648483 161.6076656 110.64931624 157.92392874 111 152.4375 C111.43227031 138.13851505 107.71427868 127.8460393 98 117 C86.23769763 105.0417953 69.8045406 95.18968927 52.6875 94.5625 C45.39947471 94.92808056 39.83979507 97.39720977 34.47265625 102.32421875 C28.90879461 108.65550958 28.62594798 117.3826504 28.734375 125.40625 C29.80134672 139.8417497 37.04653139 153.31096307 47.640625 163.12109375 C55.31526053 169.2328482 63.04557741 174.79860417 73 176 C73 176.66 73 177.32 73 178 C73.73524902 177.91733887 74.47049805 177.83467773 75.22802734 177.74951172 C97.64920217 175.44222664 97.64920217 175.44222664 102.7421875 178.984375 C105.15588929 181.52590523 107.07336847 184.07926179 109 187 C110.82195771 188.76427163 110.82195771 188.76427163 112.625 190.125 C113.800625 191.053125 113.800625 191.053125 115 192 C114.47418316 196.10337558 112.37236709 197.9744409 109.484375 200.80859375 C108.56269531 201.72060547 107.64101562 202.63261719 106.69140625 203.57226562 C105.71112758 204.52753885 104.73065724 205.48261541 103.75 206.4375 C102.78446682 207.38797203 101.8196156 208.33913735 100.85546875 209.29101562 C99.06686759 211.05349674 97.27520108 212.81287639 95.47949219 214.56811523 C93.77471517 216.24015973 92.07999696 217.92250234 90.39379883 219.61328125 C88.50966978 221.49183766 86.60943326 223.32773624 84.65234375 225.12890625 C84.05252686 225.68368652 83.45270996 226.2384668 82.8347168 226.81005859 C81.89559448 227.67751709 81.89559448 227.67751709 80.9375 228.5625 C75.3703276 233.71655095 69.93638095 238.97054869 64.68139648 244.44360352 C63.49009447 245.66507038 62.24931997 246.83794088 61 248 C60.34 248 59.68 248 59 248 C58.73832031 248.59167969 58.47664063 249.18335938 58.20703125 249.79296875 C56.93320807 252.12212764 55.66021872 253.54973804 53.6875 255.3125 C53.11386719 255.84488281 52.54023438 256.37726563 51.94921875 256.92578125 C50 258 50 258 47.73828125 257.9765625 C43.87773104 256.59976143 40.82384435 254.43034493 37.5 252.0625 C36.44051147 251.31661621 36.44051147 251.31661621 35.35961914 250.55566406 C33.23167325 249.04805956 31.11503703 247.52564198 29 246 C28.41589355 245.58540527 27.83178711 245.17081055 27.22998047 244.74365234 C7.51956297 230.68993103 -6.72695822 212.62182291 -19 192 C-19.86625 190.56527344 -19.86625 190.56527344 -20.75 189.1015625 C-27.98866557 176.54700191 -32.53110963 162.02620416 -36 148 C-36.26401611 146.94151855 -36.52803223 145.88303711 -36.80004883 144.79248047 C-39.11580957 134.55214398 -39.43881074 124.71991549 -39.3125 114.25 C-39.30623596 113.41139435 -39.29997192 112.5727887 -39.29351807 111.70877075 C-38.97382737 69.93535496 -26.67986975 32.5989137 0 0 Z " fill="#186D72" transform="translate(120,179)"/>
<path d="M0 0 C4.19066571 2.97757827 8.17981252 6.12583906 12.078125 9.4765625 C12.98691406 10.22292969 12.98691406 10.22292969 13.9140625 10.984375 C20.70008453 17.06949335 28.18076777 27.45106045 30.078125 36.4765625 C30.86316406 36.27160156 31.64820313 36.06664062 32.45703125 35.85546875 C34.03291016 35.45134766 34.03291016 35.45134766 35.640625 35.0390625 C36.67316406 34.77222656 37.70570313 34.50539062 38.76953125 34.23046875 C54.20240662 30.71388676 68.10736033 31.55976468 81.828125 39.6640625 C91.87050023 46.43143513 98.61632836 55.56827659 101.53515625 67.32421875 C103.91567945 81.14495416 101.3655813 93.40563068 93.828125 105.1640625 C86.67239904 114.61984324 75.8183697 121.54460796 64.078125 123.4765625 C59.07159757 123.86852002 54.05823983 123.93762799 49.0390625 124.04296875 C48.04390625 124.07261719 47.04875 124.10226563 46.0234375 124.1328125 C45.12125488 124.15150391 44.21907227 124.17019531 43.28955078 124.18945312 C40.87345023 124.27444924 40.87345023 124.27444924 39.078125 126.4765625 C38.74653215 128.94276414 38.74653215 128.94276414 38.75927734 131.84423828 C38.73940765 132.96524933 38.71953796 134.08626038 38.69906616 135.24124146 C38.68751495 136.45585052 38.67596375 137.67045959 38.6640625 138.921875 C38.64469635 140.16202362 38.6253302 141.40217224 38.6053772 142.67990112 C38.5556369 145.97768029 38.51440023 149.27542389 38.47723389 152.57336426 C38.43723498 155.93833584 38.38612397 159.30313642 38.3359375 162.66796875 C38.23972713 169.27072357 38.15472117 175.87355261 38.078125 182.4765625 C28.63655595 181.49896287 28.63655595 181.49896287 24.45703125 180.57421875 C23.66490234 180.40599609 22.87277344 180.23777344 22.05664062 180.06445312 C20.4803394 179.72166814 18.90477514 179.3754712 17.33007812 179.02539062 C2.03910931 175.80043088 -13.33960255 175.09581524 -28.921875 175.1640625 C-30.26016357 175.16729523 -30.26016357 175.16729523 -31.62548828 175.17059326 C-54.74556521 175.25976245 -76.31436691 177.97070762 -98.69897461 183.97338867 C-100.921875 184.4765625 -100.921875 184.4765625 -103.921875 184.4765625 C-103.93218246 183.75437531 -103.94248993 183.03218811 -103.95310974 182.28811646 C-104.0509943 175.48980135 -104.15349581 168.69156994 -104.26121426 161.89340401 C-104.31643272 158.39820653 -104.36985096 154.90300066 -104.41918945 151.40771484 C-104.47595936 147.39150754 -104.54049719 143.37545805 -104.60546875 139.359375 C-104.62218124 138.10101837 -104.63889374 136.84266174 -104.65611267 135.5461731 C-104.6860305 133.80459427 -104.6860305 133.80459427 -104.71655273 132.02783203 C-104.73209702 131.00190948 -104.7476413 129.97598694 -104.76365662 128.91897583 C-104.7635381 126.46952062 -104.7635381 126.46952062 -105.921875 124.4765625 C-106.64665039 124.47245361 -107.37142578 124.46834473 -108.11816406 124.46411133 C-111.47017434 124.4307832 -114.82045984 124.36009793 -118.171875 124.2890625 C-119.31140625 124.28326172 -120.4509375 124.27746094 -121.625 124.27148438 C-136.0107574 123.90366671 -146.74453516 118.08256452 -156.609375 107.8515625 C-166.04101839 96.63911931 -168.1063169 83.57737644 -166.921875 69.4765625 C-165.28044788 61.34853185 -161.04562557 54.87575313 -155.921875 48.4765625 C-155.44492188 47.85007813 -154.96796875 47.22359375 -154.4765625 46.578125 C-147.94100236 39.01603709 -135.56267246 32.9622803 -125.6640625 32.23828125 C-114.91843213 32.03205198 -105.30442355 33.78479065 -94.921875 36.4765625 C-94.633125 35.2803125 -94.344375 34.0840625 -94.046875 32.8515625 C-89.3132623 18.80556218 -76.56884004 5.82412487 -63.80859375 -1.20703125 C-44.38229539 -10.0658439 -18.78216515 -11.68508748 0 0 Z " fill="#186D72" transform="translate(281.921875,48.5234375)"/>
<path d="M0 0 C4.64045663 1.41555689 6.86333295 3.70137166 10.015625 7.328125 C10.98378029 8.42088242 11.9545835 9.51129838 12.92773438 10.59960938 C13.68171509 11.4435022 13.68171509 11.4435022 14.45092773 12.30444336 C16.98165775 15.0744859 19.63245429 17.71861084 22.296875 20.359375 C22.82607544 20.88519165 23.35527588 21.4110083 23.9005127 21.95275879 C25.51492481 23.55396108 27.13199296 25.15243095 28.75 26.75 C41.16742295 39.01261981 41.16742295 39.01261981 46.57763672 45.359375 C48.4970357 47.57330585 50.57335807 49.59815657 52.6875 51.625 C55.99857916 54.88522641 58.64300463 58.00335568 61 62 C53.31698273 65.50543831 45.73494157 67.25785771 37.4375 68.6875 C36.27025391 68.89955078 35.10300781 69.11160156 33.90039062 69.33007812 C12.06691671 73.22935206 -10.24602903 73.6549501 -32 69 C-32.75909668 68.8448291 -33.51819336 68.6896582 -34.30029297 68.52978516 C-42.59262566 66.81828119 -50.40516917 64.86645933 -58 61 C-55.47949211 56.1449422 -51.96458202 52.72405269 -48.1015625 48.94140625 C-47.42958832 48.27463364 -46.75761414 47.60786102 -46.0652771 46.92088318 C-43.92323424 44.7965936 -41.77462013 42.67911946 -39.625 40.5625 C-37.48338034 38.44861528 -35.34328191 36.3332467 -33.20614624 34.21482849 C-31.87889368 32.89970497 -30.54897744 31.58726235 -29.2159729 30.27796936 C-25.57359381 26.67454989 -22.23971946 22.96827404 -19 19 C-17.78189299 17.88092608 -16.5341209 16.79266227 -15.25 15.75 C-11.0754087 12.20239105 -7.49562277 8.24676249 -3.8828125 4.13671875 C-2.6325183 2.71781641 -1.33725828 1.33725828 0 0 Z " fill="#186C71" transform="translate(247,386)"/>
<path d="M0 0 C0.33 0 0.66 0 1 0 C1.16276042 1.98567708 1.32552083 3.97135417 1.48828125 5.95703125 C2.10397663 8.41511279 3.09542081 9.38136299 5 11 C-1.45868076 18.09996822 -7.99990377 25.06823298 -14.83105469 31.81152344 C-19.53929365 36.48222162 -23.83368846 41.45139818 -28.125 46.5 C-30 48 -30 48 -32.75 48.25 C-33.4925 48.1675 -34.235 48.085 -35 48 C-35.9375 45.9375 -35.9375 45.9375 -36 43 C-33.00413911 38.93142763 -28.81135245 35.83683214 -25 32.5625 C-21.6163492 29.64645545 -18.73850228 26.51678252 -15.859375 23.109375 C-13.77816243 20.74833553 -11.56705688 18.57061421 -9.3125 16.375 C-4.2055057 11.30280634 -0.70997908 7.45478036 0 0 Z " fill="#20676D" transform="translate(336,289)"/>
<path d="M0 0 C0.33 0 0.66 0 1 0 C1.16276042 1.98567708 1.32552083 3.97135417 1.48828125 5.95703125 C2.10744053 8.42894195 3.16973337 9.28905227 5 11 C3.06629992 13.12856908 1.12827941 15.2529021 -0.8125 17.375 C-1.35970703 17.97828125 -1.90691406 18.5815625 -2.47070312 19.203125 C-3.00244141 19.78320312 -3.53417969 20.36328125 -4.08203125 20.9609375 C-4.56905518 21.49509277 -5.0560791 22.02924805 -5.55786133 22.57958984 C-7 24 -7 24 -10 26 C-8.59155282 22.78475695 -6.89655214 20.67816132 -4.375 18.25 C-3.42753906 17.32960938 -3.42753906 17.32960938 -2.4609375 16.390625 C-1.73777344 15.70226562 -1.73777344 15.70226562 -1 15 C-1.33 14.34 -1.66 13.68 -2 13 C-4.64 15.31 -7.28 17.62 -10 20 C-10 16.08870879 -8.8299742 15.53191356 -6.125 12.8125 C-2.21002127 8.59317664 -0.82228264 5.65319315 0 0 Z " fill="#18575E" transform="translate(336,289)"/>
<path d="M0 0 C0.66 0.33 1.32 0.66 2 1 C0.58791833 2.60820412 -0.82986036 4.21140708 -2.25 5.8125 C-3.03890625 6.70582031 -3.8278125 7.59914063 -4.640625 8.51953125 C-6.68218543 10.66587375 -8.45015638 12.4985425 -11 14 C-11.99 13.67 -12.98 13.34 -14 13 C-9.89962427 7.75027653 -5.47035213 3.79037089 0 0 Z " fill="#24636A" transform="translate(213,51)"/>
<path d="M0 0 C5.5583291 2.77916455 9.77470054 9.07019927 13.83984375 13.6171875 C16.15215195 16.16783488 18.52685987 18.60663858 21 21 C17.08697446 21 16.49804043 19.88397412 13.76953125 17.16796875 C12.96708984 16.36939453 12.16464844 15.57082031 11.33789062 14.74804688 C10.50451172 13.90306641 9.67113281 13.05808594 8.8125 12.1875 C7.96751953 11.35412109 7.12253906 10.52074219 6.25195312 9.66210938 C5.45337891 8.85966797 4.65480469 8.05722656 3.83203125 7.23046875 C3.09702393 6.49207764 2.3620166 5.75368652 1.60473633 4.99291992 C0 3 0 3 0 0 Z " fill="#336066" transform="translate(274,383)"/>
<path d="M0 0 C0 4.22225848 -1.82726441 5.29347556 -4.75 8.25 C-5.63171875 9.16265625 -6.5134375 10.0753125 -7.421875 11.015625 C-10 13 -10 13 -12.15625 12.94921875 C-15.01462251 11.47764138 -16.89610006 9.39610827 -19 7 C-19 6.34 -19 5.68 -19 5 C-16.11562221 6.29299694 -14.12780579 7.65941363 -12 10 C-8.54798361 8.52278578 -6.35038064 6.56205999 -3.75 3.875 C-2.69039063 2.78832031 -2.69039063 2.78832031 -1.609375 1.6796875 C-1.07828125 1.12539063 -0.5471875 0.57109375 0 0 Z " fill="#26555D" transform="translate(260,346)"/>
<path d="M0 0 C1.32 0.33 2.64 0.66 4 1 C1.03 3.97 -1.94 6.94 -5 10 C-5.99 9.67 -6.98 9.34 -8 9 C-7.04270084 7.87411986 -6.08412105 6.7493285 -5.125 5.625 C-4.59132813 4.99851562 -4.05765625 4.37203125 -3.5078125 3.7265625 C-2.38567993 2.44163349 -1.20628025 1.20628025 0 0 Z " fill="#115C63" transform="translate(328,334)"/>
<path d="M0 0 C0.33 0 0.66 0 1 0 C1.19148936 20.53191489 1.19148936 20.53191489 0 30 C-0.33 30 -0.66 30 -1 30 C-1.33 25.71 -1.66 21.42 -2 17 C-1.34 17 -0.68 17 0 17 C0 11.39 0 5.78 0 0 Z " fill="#478C91" transform="translate(61,282)"/>
<path d="M0 0 C7.21016288 3.21179983 13.10135739 9.21975198 17 16 C16.67 16.66 16.34 17.32 16 18 C14.26907429 16.1265988 12.54023837 14.25133718 10.8125 12.375 C10.32974609 11.85292969 9.84699219 11.33085938 9.34960938 10.79296875 C6.11982129 7.28138707 3.02821458 3.68700349 0 0 Z " fill="#325A61" transform="translate(303,39)"/>
<path d="M0 0 C2.475 0.99 2.475 0.99 5 2 C3.875 4 3.875 4 2 6 C-1 6.25 -1 6.25 -4 6 C-4.99 6 -5.98 6 -7 6 C-4.69 4.02 -2.38 2.04 0 0 Z " fill="#115960" transform="translate(318,316)"/>
<path d="M0 0 C0 4.53846154 0 4.53846154 -1 7 C-1.804375 7.474375 -2.60875 7.94875 -3.4375 8.4375 C-6.22164765 9.77628665 -6.22164765 9.77628665 -7 12.625 C-7.33 13.40875 -7.66 14.1925 -8 15 C-10.625 15.8125 -10.625 15.8125 -13 16 C-8.93866463 10.40636594 -4.6208599 5.14036486 0 0 Z " fill="#22575D" transform="translate(400,403)"/>
<path d="M0 0 C0.33 0 0.66 0 1 0 C1.78240253 7.9805058 1.78240253 7.9805058 -1.0625 11.6875 C-2.031875 12.450625 -3.00125 13.21375 -4 14 C-5.27411808 15.10037471 -6.54489242 16.20463159 -7.8125 17.3125 C-8.87324959 18.2104053 -9.93513145 19.10698344 -11 20 C-9.599221 16.83423946 -7.90779034 14.71900535 -5.5 12.25 C-1.9174599 8.28760638 -0.84092562 5.23242606 0 0 Z " fill="#255057" transform="translate(336,289)"/>
<path d="M0 0 C-0.99 0.33 -1.98 0.66 -3 1 C-3.33 1.66 -3.66 2.32 -4 3 C-6.21484375 3.59765625 -6.21484375 3.59765625 -8.9375 4.0625 C-12.58772209 4.66805467 -12.58772209 4.66805467 -16 6 C-16.99 5.67 -17.98 5.34 -19 5 C-19 4.34 -19 3.68 -19 3 C-16.77228658 2.49356447 -14.54275924 1.9951038 -12.3125 1.5 C-10.45044922 1.08234375 -10.45044922 1.08234375 -8.55078125 0.65625 C-5.57601782 0.10645874 -3.00631398 -0.13795705 0 0 Z " fill="#255D64" transform="translate(210,245)"/>
<path d="M0 0 C0.33 0.66 0.66 1.32 1 2 C0.67 2.99 0.34 3.98 0 5 C0.556875 5.20625 1.11375 5.4125 1.6875 5.625 C4.92501302 7.55000774 6.68231141 10.03850902 9 13 C5.13182733 13 4.45359549 11.91469484 1.75 9.25 C1.02296875 8.55390625 0.2959375 7.8578125 -0.453125 7.140625 C-2 5 -2 5 -1.796875 2.796875 C-1 1 -1 1 0 0 Z " fill="#386269" transform="translate(264,369)"/>
<path d="M0 0 C1.06663156 3.19989467 0.95708631 3.91280018 0.0625 7 C-0.66778658 9.55358486 -1 11.29708365 -1 14 C-1.66 13.67 -2.32 13.34 -3 13 C-3 12.34 -3 11.68 -3 11 C-3.66 11 -4.32 11 -5 11 C-4.32902328 6.80639551 -2.1441606 3.59665648 0 0 Z " fill="#37686D" transform="translate(396,155)"/>
<path d="M0 0 C0 3 0 3 -2.3125 5.375 C-3.199375 6.24125 -4.08625 7.1075 -5 8 C-5.53625 8.928125 -6.0725 9.85625 -6.625 10.8125 C-7.07875 11.534375 -7.5325 12.25625 -8 13 C-8.99 13 -9.98 13 -11 13 C-7.92877136 7.96318503 -4.27083334 4.05489233 0 0 Z " fill="#1C555C" transform="translate(343,318)"/>
<path d="M0 0 C4.48525648 0.656379 8.66914029 1.70074209 13 3 C13 3.66 13 4.32 13 5 C13.99 5.33 14.98 5.66 16 6 C10.03435204 5.49228528 5.36190101 3.61407872 0 1 C0 0.67 0 0.34 0 0 Z " fill="#416B71" transform="translate(138,166)"/>
<path d="M0 0 C0.6484375 1.74609375 0.6484375 1.74609375 1 4 C0.0390625 6.03515625 0.0390625 6.03515625 -1.375 8.0625 C-3.03164999 10.47343477 -4.06272226 12.18816679 -5 15 C-5.66 15 -6.32 15 -7 15 C-5.45454854 9.52067211 -2.84456788 4.88570819 0 0 Z " fill="#215058" transform="translate(421,368)"/>
<path d="M0 0 C3.37503669 1.1858237 5.64722731 2.27573689 8 5 C6.4221875 4.6596875 6.4221875 4.6596875 4.8125 4.3125 C0.61198583 3.96819556 -0.7162062 4.51227742 -4 7 C-2.79618552 4.50638429 -1.54571278 2.31856917 0 0 Z " fill="#1A5158" transform="translate(120,179)"/>
<path d="M0 0 C3.45281166 1.15093722 4.38082163 2.3205993 6.6875 5.0625 C7.31011719 5.79597656 7.93273437 6.52945312 8.57421875 7.28515625 C9.04472656 7.85105469 9.51523438 8.41695313 10 9 C9.34 9.66 8.68 10.32 8 11 C6.66072279 9.54712339 5.32873153 8.08752741 4 6.625 C3.2575 5.81289063 2.515 5.00078125 1.75 4.1640625 C0 2 0 2 0 0 Z " fill="#2F5F66" transform="translate(157,332)"/>
<path d="M0 0 C3.41660651 1.13886884 4.53320396 2.67527922 6.7265625 5.43359375 C8.3505174 7.43115791 10.14709491 9.21572102 12 11 C6.80546349 9.58330822 3.33817117 6.07891809 0 2 C0 1.34 0 0.68 0 0 Z " fill="#285258" transform="translate(125,154)"/>
<path d="M0 0 C0.66 0 1.32 0 2 0 C1.8125 2.3125 1.8125 2.3125 1 5 C-1.5625 6.8125 -1.5625 6.8125 -4 8 C-2.87548273 5.0280615 -1.77706209 2.66559313 0 0 Z " fill="#165A5F" transform="translate(108,196)"/>
<path d="M0 0 C2 2 2 2 3 5 C4.65 5 6.3 5 8 5 C7.01 6.485 7.01 6.485 6 8 C1.125 7.125 1.125 7.125 0 6 C-0.04080783 4.00041636 -0.04254356 1.99954746 0 0 Z " fill="#3E6269" transform="translate(284,316)"/>
<path d="M0 0 C0.66 0 1.32 0 2 0 C1.25 7.625 1.25 7.625 -1 11 C-2.60080151 6.99799622 -1.29279692 3.95443764 0 0 Z " fill="#3E6D71" transform="translate(67,235)"/>
<path d="M0 0 C0 0.99 0 1.98 0 3 C-5.14285714 7 -5.14285714 7 -9 7 C-7.88121617 5.82737096 -6.75476949 4.66204862 -5.625 3.5 C-4.68527344 2.52546875 -4.68527344 2.52546875 -3.7265625 1.53125 C-2 0 -2 0 0 0 Z " fill="#365E65" transform="translate(247,388)"/>
<path d="M0 0 C0.99 0.33 1.98 0.66 3 1 C4.1875 4.0625 4.1875 4.0625 5 7 C4.01 7.33 3.02 7.66 2 8 C1.34 5.36 0.68 2.72 0 0 Z " fill="#386C71" transform="translate(376,103)"/>
<path d="M0 0 C5.66153846 1.47692308 5.66153846 1.47692308 7.375 4.125 C7.684375 5.053125 7.684375 5.053125 8 6 C4.08597051 4.73058503 2.20927127 3.48832306 0 0 Z " fill="#165057" transform="translate(147,422)"/>
<path d="M0 0 C0.33 0.99 0.66 1.98 1 3 C-0.375 4.5 -0.375 4.5 -2 6 C-2.66 6 -3.32 6 -4 6 C-3.6875 4.125 -3.6875 4.125 -3 2 C-2.01 1.34 -1.02 0.68 0 0 Z " fill="#276268" transform="translate(230,404)"/>
<path d="M0 0 C0.928125 0.20625 1.85625 0.4125 2.8125 0.625 C2.8125 1.285 2.8125 1.945 2.8125 2.625 C-0.1575 2.295 -3.1275 1.965 -6.1875 1.625 C-3.1875 -0.375 -3.1875 -0.375 0 0 Z " fill="#457177" transform="translate(349.1875,60.375)"/>
</svg>
