<svg width="192" height="192" viewBox="0 0 192 192" xmlns="http://www.w3.org/2000/svg">
  <rect width="192" height="192" rx="48" fill="#ECFDF5" />
  <circle cx="96" cy="72" r="44" fill="#4BA151" fill-opacity="0.85" />
  <path d="M96 28c-24.3 0-44 19.7-44 44 0 1.4 0.07 2.8 0.21 4.2 7.4-10.3 21.5-17.2 37.79-17.2 16.32 0 30.46 6.92 37.84 17.3 0.11-1.45 0.16-2.91 0.16-4.3 0-24.3-19.7-44-44-44Z" fill="#7CC774" />
  <path d="M96 108c-33.14 0-60 26.86-60 60h120c0-33.14-26.86-60-60-60Z" fill="#4BA151" />
  <path d="M96 114c-26.51 0-48 21.49-48 48h96c0-26.51-21.49-48-48-48Z" fill="#FFFFFF" fill-opacity="0.6" />
</svg>

